<svg width="53" height="54" viewBox="0 0 53 54" fill="none" xmlns="http://www.w3.org/2000/svg">
<path d="M11.4705 53.252C8.07208 53.252 5.35334 52.2567 3.31428 50.2662C1.32378 48.2757 0.328523 45.6055 0.328523 42.2556C0.328523 38.7115 1.37233 35.9685 3.45993 34.0266C5.59608 32.0361 8.72749 31.0408 12.8541 31.0408H39.6532C43.8284 31.0408 46.9598 32.0361 49.0474 34.0266C51.135 35.9685 52.1788 38.7115 52.1788 42.2556C52.1788 45.6055 51.1593 48.2757 49.1202 50.2662C47.1297 52.2567 44.4352 53.252 41.0368 53.252C38.3181 53.252 36.1576 52.7422 34.5555 51.7227C33.002 50.7031 31.8853 49.3438 31.2057 47.6446C30.5745 45.9453 30.2589 44.0762 30.2589 42.0371V12.0339C30.2589 9.99484 30.5745 8.12571 31.2057 6.4265C31.8853 4.72729 33.002 3.36791 34.5555 2.34839C36.1576 1.32886 38.3181 0.819096 41.0368 0.819096C44.4352 0.819096 47.1297 1.81435 49.1202 3.80486C51.1593 5.79536 52.1788 8.46556 52.1788 11.8154C52.1788 15.3595 51.135 18.1268 49.0474 20.1173C46.9598 22.0593 43.8284 23.0302 39.6532 23.0302H12.8541C8.72749 23.0302 5.59608 22.0593 3.45993 20.1173C1.37233 18.1268 0.328523 15.3595 0.328523 11.8154C0.328523 8.46556 1.32378 5.79536 3.31428 3.80486C5.35334 1.81435 8.07208 0.819096 11.4705 0.819096C14.1892 0.819096 16.3254 1.32886 17.879 2.34839C19.4811 3.36791 20.5977 4.72729 21.2288 6.4265C21.9085 8.12571 22.2484 9.99484 22.2484 12.0339V42.0371C22.2484 44.0762 21.9085 45.9453 21.2288 47.6446C20.5977 49.3438 19.4811 50.7031 17.879 51.7227C16.3254 52.7422 14.1892 53.252 11.4705 53.252ZM11.4705 48.2271C13.3639 48.2271 14.7718 47.6931 15.6943 46.625C16.6652 45.5084 17.1507 44.0277 17.1507 42.1828V11.8883C17.1507 10.0434 16.6652 8.58693 15.6943 7.51885C14.7718 6.40222 13.3639 5.84391 11.4705 5.84391C9.77129 5.84391 8.3391 6.30513 7.17392 7.22756C6.0573 8.14999 5.49899 9.67928 5.49899 11.8154C5.49899 13.903 6.08157 15.4809 7.24675 16.549C8.41192 17.5685 10.2811 18.0782 12.8541 18.0782H39.6532C42.2263 18.0782 44.0954 17.5685 45.2606 16.549C46.4257 15.4809 47.0083 13.903 47.0083 11.8154C47.0083 9.67928 46.4257 8.14999 45.2606 7.22756C44.1439 6.30513 42.736 5.84391 41.0368 5.84391C39.1434 5.84391 37.7112 6.40222 36.7402 7.51885C35.8178 8.58693 35.3566 10.0434 35.3566 11.8883V42.1828C35.3566 44.0277 35.8178 45.5084 36.7402 46.625C37.7112 47.6931 39.1434 48.2271 41.0368 48.2271C42.736 48.2271 44.1439 47.7659 45.2606 46.8435C46.4257 45.9211 47.0083 44.3918 47.0083 42.2556C47.0083 40.168 46.4257 38.6144 45.2606 37.5949C44.0954 36.5268 42.2263 35.9928 39.6532 35.9928H12.8541C10.2811 35.9928 8.41192 36.5268 7.24675 37.5949C6.08157 38.6144 5.49899 40.168 5.49899 42.2556C5.49899 44.3918 6.0573 45.9211 7.17392 46.8435C8.3391 47.7659 9.77129 48.2271 11.4705 48.2271Z" fill="#CBCBCB"/>
</svg>
