<svg width="55" height="64" viewBox="0 0 55 64" fill="none" xmlns="http://www.w3.org/2000/svg">
<path d="M16.3428 15.0831C15.4816 13.5007 13.4864 12.901 12.0186 13.9454C8.00482 16.8015 4.82477 20.7083 2.84599 25.2641C0.432081 30.8217 -0.0557739 37.0265 1.4599 42.8931C2.97558 48.7597 6.40789 53.9517 11.2117 57.6445C16.0156 61.3374 21.9155 63.3193 27.9745 63.2757C34.0336 63.232 39.9044 61.1652 44.6545 57.4035C49.4046 53.6418 52.7617 48.4009 54.1927 42.5131C55.6236 36.6253 55.0464 30.4281 52.5527 24.9059C50.5084 20.3791 47.2724 16.5185 43.2179 13.7206C41.7352 12.6974 39.7488 13.3259 38.9105 14.9204C38.0721 16.515 38.7054 18.4682 40.1483 19.5468C42.9327 21.6284 45.1617 24.3905 46.6069 27.5909C48.5021 31.7878 48.9408 36.4976 47.8533 40.9724C46.7658 45.4471 44.2144 49.4302 40.6043 52.2891C36.9942 55.148 32.5324 56.7187 27.9275 56.7519C23.3227 56.7851 18.8387 55.2788 15.1878 52.4722C11.5369 49.6657 8.92832 45.7198 7.7764 41.2612C6.62449 36.8026 6.99526 32.0869 8.82983 27.8631C10.2288 24.6423 12.4177 21.8483 15.1719 19.7268C16.5991 18.6275 17.2041 16.6654 16.3428 15.0831Z" fill="#CBCBCB"/>
<rect x="24.7588" y="0.856445" width="7.04743" height="38.2575" rx="3.52371" fill="#CBCBCB"/>
</svg>
